<?xml version="1.0" standalone="no"?>
<!DOCTYPE svg PUBLIC "-//W3C//DTD SVG 1.1//EN"
  "http://www.w3.org/Graphics/SVG/1.1/DTD/svg11.dtd">
<svg version="1.1" xmlns="http://www.w3.org/2000/svg" xmlns:xlink="http://www.w3.org/1999/xlink" width="1792" height="1063" viewBox="-992 -32 1792 1063" id="ccdiagram"><filter id="grayscale"><feColorMatrix type="saturate" values="0"></feColorMatrix></filter><filter id="highlight"><feColorMatrix type="matrix" color-interpolation-filters="sRGB" values="0.20338 0 0 0 0 0 0.58474 0 0 0 0 0 0.97033 0 0 0 0 0 1 0"></feColorMatrix></filter><defs><style type="text/css">@import url('https://fonts.googleapis.com/css?family=Open+Sans:400,700|Inconsolata:400');</style></defs><g><rect x="-992" y="-32" width="1792" height="1063" fill="#ffffff" id="interactionLayer"></rect><g style="pointer-events: none;"><g><pattern id="gridPatternMinor" x="0" y="37" width="128" height="74" patternUnits="userSpaceOnUse"><path d="M 0 0 L 128 74" stroke="#eeeeee" stroke-width="1"></path><path d="M 128 0 L 0 74" stroke="#eeeeee" stroke-width="1"></path></pattern><polygon points="0 0, 768 444, -192 999, -960 555" fill="url(#gridPatternMinor)"></polygon></g><polygon points="-960 555, -960 565, -192 1009, -192 999" stroke="#54626f" fill="#f9f9f9" stroke-linejoin="round" stroke-width="1"></polygon><polygon points="-192 1009, 768 454, 768 444, -192 999" stroke="#54626f" fill="#e2e2e2" stroke-linejoin="round" stroke-width="1"></polygon></g><g pointer-events="auto"></g><g style="pointer-events: none;"><g><pattern id="gridPatternMajor" x="0" y="37" width="128" height="74" patternUnits="userSpaceOnUse"><path d="M 64 0 L 128 37 64 74 0 37 z" stroke="#54626f" stroke-width="1" fill="none"></path></pattern><polygon points="0 0, 768 444, -192 999, -960 555" fill="url(#gridPatternMajor)"></polygon></g></g><g pointer-events="auto"></g><g pointer-events="auto"></g><g></g><g pointer-events="auto"></g><g></g><g pointer-events="auto"></g><g pointer-events="auto"></g><g pointer-events="none"></g><g pointer-events="auto"><g id="d914ac4c-bf5c-48b4-8cf9-491da8834fd8-730d4a4f-cc4b-4416-bb3e-880b90050bba"><g cursor="cell"><line x1="-351" y1="536" x2="-298" y2="505" stroke="red" stroke-width="8" opacity="0"></line><line x1="-351" y1="536" x2="-298" y2="505" stroke="#000000" stroke-width="2" stroke-linecap="round"></line><polygon points="-288 500, -314 505, -300 507, -297 514, -288 500" stroke-linejoin="round" fill="#000000" stroke="#000000" stroke-width="1"></polygon></g></g><g id="cff0c811-fd31-4f40-b2dd-922485efa3e2-37f886b0-57e5-4c4c-b2e9-53e8ed9d8f87"><g cursor="cell"><line x1="-464" y1="823" x2="-96" y2="611" stroke="red" stroke-width="8" opacity="0"></line><line x1="-464" y1="823" x2="-96" y2="611" stroke="#000000" stroke-width="2" stroke-linecap="round"></line></g></g><g id="f5482e29-99c4-4ccb-a2cf-adf45b7e15bf-42c81d28-3c8d-444f-850b-a9ddeaab8a3e"><g cursor="cell"><line x1="-704" y1="518" x2="-586" y2="450" stroke="red" stroke-width="8" opacity="0"></line><line x1="-704" y1="518" x2="-586" y2="450" stroke="#000000" stroke-width="2" stroke-linecap="round"></line><polygon points="-576 444, -602 449, -588 451, -585 459, -576 444" stroke-linejoin="round" fill="#000000" stroke="#000000" stroke-width="1"></polygon></g></g><g id="9466d6f5-6f80-40ba-a8f5-e96c8afbfa0d-5a10a7dc-a096-403a-8a0a-210c1ea7cb61"><g cursor="cell"><line x1="160" y1="241" x2="222" y2="204" stroke="red" stroke-width="8" opacity="0"></line><line x1="160" y1="241" x2="222" y2="204" stroke="#000000" stroke-width="2" stroke-linecap="round"></line><polygon points="232 199, 206 204, 220 206, 223 214, 232 199" stroke-linejoin="round" fill="#000000" stroke="#000000" stroke-width="1"></polygon></g></g><g id="0c8be1f0-bafc-45d1-ac4d-7fbd15009dae-95ea2df8-d510-41ed-abf1-01bbb73b32d8"><g cursor="cell"><line x1="-96" y1="389" x2="-42" y2="357" stroke="red" stroke-width="8" opacity="0"></line><line x1="-96" y1="389" x2="-42" y2="357" stroke="#000000" stroke-width="2" stroke-linecap="round"></line><polygon points="-32 352, -58 357, -44 359, -41 366, -32 352" stroke-linejoin="round" fill="#000000" stroke="#000000" stroke-width="1"></polygon></g></g><g id="1153288c-34be-43d2-9519-0856f5b8d059-6d830b6b-ecec-4ae7-85eb-0157159f878e"><g cursor="cell"><line x1="-572" y1="737" x2="-477" y2="683" stroke="red" stroke-width="8" opacity="0"></line><line x1="-572" y1="737" x2="-477" y2="683" stroke="#000000" stroke-width="2" stroke-linecap="round"></line><polygon points="-468 677, -493 683, -480 685, -477 692, -468 677" stroke-linejoin="round" fill="#000000" stroke="#000000" stroke-width="1"></polygon></g></g><g id="a9ee2911-160c-4742-9e88-2d1431aa409a-730d4a4f-cc4b-4416-bb3e-880b90050bba"><g cursor="cell"><line x1="-64" y1="592" x2="-214" y2="505" stroke="red" stroke-width="8" opacity="0"></line><line x1="-64" y1="592" x2="-214" y2="505" stroke="#000000" stroke-width="2" stroke-linecap="round"></line><polygon points="-224 500, -215 514, -212 507, -198 505, -224 500" stroke-linejoin="round" fill="#000000" stroke="#000000" stroke-width="1"></polygon></g></g><g id="37f886b0-57e5-4c4c-b2e9-53e8ed9d8f87-a9ee2911-160c-4742-9e88-2d1431aa409a"><g cursor="cell"><line x1="-96" y1="611" x2="-74" y2="598" stroke="red" stroke-width="8" opacity="0"></line><line x1="-96" y1="611" x2="-74" y2="598" stroke="#000000" stroke-width="2" stroke-linecap="round"></line><polygon points="-64 592, -90 597, -76 599, -73 607, -64 592" stroke-linejoin="round" fill="#000000" stroke="#000000" stroke-width="1"></polygon></g></g><g id="730d4a4f-cc4b-4416-bb3e-880b90050bba-0c8be1f0-bafc-45d1-ac4d-7fbd15009dae"><g cursor="cell"><line x1="-224" y1="463" x2="-170" y2="431" stroke="red" stroke-width="8" opacity="0"></line><line x1="-224" y1="463" x2="-170" y2="431" stroke="#000000" stroke-width="2" stroke-linecap="round"></line><polygon points="-160 426, -186 431, -172 433, -169 440, -160 426" stroke-linejoin="round" fill="#000000" stroke="#000000" stroke-width="1"></polygon></g></g><g id="42c81d28-3c8d-444f-850b-a9ddeaab8a3e-0cb16025-6c8f-40c1-a7a9-e18989cd72da"><g cursor="cell"><line x1="-576" y1="444" x2="-458" y2="376" stroke="red" stroke-width="8" opacity="0"></line><line x1="-576" y1="444" x2="-458" y2="376" stroke="#000000" stroke-width="2" stroke-linecap="round"></line><polygon points="-448 370, -474 375, -460 377, -457 385, -448 370" stroke-linejoin="round" fill="#000000" stroke="#000000" stroke-width="1"></polygon></g></g><g id="06781b5d-cb33-46e0-9a06-b726e59fac3f-3afb0520-2634-4c66-9baf-289f5e4cd2f6"><g cursor="cell"><line x1="224" y1="426" x2="298" y2="383" stroke="red" stroke-width="8" opacity="0"></line><line x1="224" y1="426" x2="298" y2="383" stroke="#000000" stroke-width="2" stroke-linecap="round"></line><polygon points="307 377, 282 383, 295 385, 298 392, 307 377" stroke-linejoin="round" fill="#000000" stroke="#000000" stroke-width="1"></polygon></g></g><g id="1153288c-34be-43d2-9519-0856f5b8d059-cff0c811-fd31-4f40-b2dd-922485efa3e2"><g cursor="cell"><line x1="-569" y1="763" x2="-464" y2="823" stroke="red" stroke-width="8" opacity="0"></line><line x1="-569" y1="763" x2="-464" y2="823" stroke="#000000" stroke-width="2" stroke-linecap="round"></line></g></g><g id="95ea2df8-d510-41ed-abf1-01bbb73b32d8-9466d6f5-6f80-40ba-a8f5-e96c8afbfa0d"><g cursor="cell"><line x1="32" y1="315" x2="86" y2="283" stroke="red" stroke-width="8" opacity="0"></line><line x1="32" y1="315" x2="86" y2="283" stroke="#000000" stroke-width="2" stroke-linecap="round"></line><polygon points="96 278, 70 283, 84 285, 87 292, 96 278" stroke-linejoin="round" fill="#000000" stroke="#000000" stroke-width="1"></polygon></g></g><g id="0cb16025-6c8f-40c1-a7a9-e18989cd72da-730d4a4f-cc4b-4416-bb3e-880b90050bba"><g cursor="cell"><line x1="-448" y1="370" x2="-298" y2="457" stroke="red" stroke-width="8" opacity="0"></line><line x1="-448" y1="370" x2="-298" y2="457" stroke="#000000" stroke-width="2" stroke-linecap="round"></line><polygon points="-288 463, -297 448, -300 455, -314 457, -288 463" stroke-linejoin="round" fill="#000000" stroke="#000000" stroke-width="1"></polygon></g></g><g id="6d830b6b-ecec-4ae7-85eb-0157159f878e-701313ce-b095-4f85-a273-8ac7b537157d"><g cursor="cell"><line x1="-465" y1="656" x2="-534" y2="616" stroke="red" stroke-width="8" opacity="0"></line><line x1="-465" y1="656" x2="-534" y2="616" stroke="#000000" stroke-width="2" stroke-linecap="round"></line><polygon points="-544 611, -535 625, -532 618, -518 616, -544 611" stroke-linejoin="round" fill="#000000" stroke="#000000" stroke-width="1"></polygon></g></g><g id="a07dac64-30e7-4881-8b0e-1074c259422a-95ea2df8-d510-41ed-abf1-01bbb73b32d8"><g cursor="cell"><line x1="-104" y1="273" x2="-42" y2="309" stroke="red" stroke-width="8" opacity="0"></line><line x1="-104" y1="273" x2="-42" y2="309" stroke="#000000" stroke-width="2" stroke-linecap="round"></line><polygon points="-32 315, -41 300, -44 307, -58 309, -32 315" stroke-linejoin="round" fill="#000000" stroke="#000000" stroke-width="1"></polygon></g></g><g id="701313ce-b095-4f85-a273-8ac7b537157d-f5482e29-99c4-4ccb-a2cf-adf45b7e15bf"><g cursor="cell"><line x1="-608" y1="574" x2="-694" y2="524" stroke="red" stroke-width="8" opacity="0"></line><line x1="-608" y1="574" x2="-694" y2="524" stroke="#000000" stroke-width="2" stroke-linecap="round"></line><polygon points="-704 518, -695 533, -692 525, -678 523, -704 518" stroke-linejoin="round" fill="#000000" stroke="#000000" stroke-width="1"></polygon></g></g><g id="a8a23d9b-5c60-4877-9685-8daef659d0f5-06781b5d-cb33-46e0-9a06-b726e59fac3f"><g cursor="cell"><line x1="64" y1="518" x2="150" y2="468" stroke="red" stroke-width="8" opacity="0"></line><line x1="64" y1="518" x2="150" y2="468" stroke="#000000" stroke-width="2" stroke-linecap="round"></line><polygon points="160 463, 134 468, 148 470, 151 477, 160 463" stroke-linejoin="round" fill="#000000" stroke="#000000" stroke-width="1"></polygon></g></g><g id="3afb0520-2634-4c66-9baf-289f5e4cd2f6-f6bc7bc7-bef9-4163-989a-99634cb046cc"><g cursor="cell"><line x1="333" y1="377" x2="414" y2="425" stroke="red" stroke-width="8" opacity="0"></line><line x1="333" y1="377" x2="414" y2="425" stroke="#000000" stroke-width="2" stroke-linecap="round"></line><polygon points="424 430, 415 415, 412 423, 398 425, 424 430" stroke-linejoin="round" fill="#000000" stroke="#000000" stroke-width="1"></polygon></g></g><g id="a9ee2911-160c-4742-9e88-2d1431aa409a-a8a23d9b-5c60-4877-9685-8daef659d0f5"><g cursor="cell"><line x1="-64" y1="592" x2="54" y2="524" stroke="red" stroke-width="8" opacity="0"></line><line x1="-64" y1="592" x2="54" y2="524" stroke="#000000" stroke-width="2" stroke-linecap="round"></line><polygon points="64 518, 38 523, 52 525, 55 533, 64 518" stroke-linejoin="round" fill="#000000" stroke="#000000" stroke-width="1"></polygon></g></g></g><g pointer-events="auto"><g opacity="1"><g id="3afb0520-2634-4c66-9baf-289f5e4cd2f6" transform="translate(0 0)"><svg x="269" y="268" width="100.625" height="115.695" viewBox="0 0 26.624 30.611"><path fill="#4286c5" d="M13.312.306v15l12.99-7.5z" fill-rule="evenodd"></path><path fill="#26527b" d="m.321 7.806 12.99 7.5v-15z" fill-rule="evenodd"></path><path fill="none" stroke="#020406" d="M13.312.306v15" stroke-width=".265"></path><path fill="#26527b" d="m13.312 15.306 12.99-7.5-6.495 18.75-6.495 3.75z" fill-rule="evenodd"></path><path fill="#326ca2" d="m.321 7.806 12.99 7.5v15l-6.494-3.75z" fill-rule="evenodd"></path><path fill="none" stroke="#0e1e2d" d="m.321 7.806 12.99 7.5 12.991-7.5-12.99 7.5v15" stroke-width=".265"></path><path fill="none" stroke="#000000" d="m13.312.306-12.99 7.5 6.495 18.75 6.495 3.75 6.495-3.75 6.495-18.75z" stroke-width=".529"></path></svg></g></g><g opacity="1"><g id="d914ac4c-bf5c-48b4-8cf9-491da8834fd8" transform="translate(0 0)"><svg x="-440" y="517" width="112.002" height="70.288" viewBox="0 0 29.634 18.597"><path fill="none" stroke="#4b120c" d="M29.369 9.367 27.29 7.53l-16.631 4.779-8.316-4.801" stroke-linejoin="round" stroke-width=".267"></path><path fill="#ce3222" stroke="#4b120c" d="m14.817 14.733-2.08 3.6h4.158zM.264 11.108l2.08-3.6-2.08 1.825z" fill-rule="evenodd" stroke-linejoin="round" stroke-width=".267"></path><path fill="#a2281b" stroke="#4b120c" d="m29.369 11.131-2.079-3.6 2.079 1.836z" fill-rule="evenodd" stroke-linejoin="round" stroke-width=".267"></path><path fill="#e05243" stroke="#4b120c" d="m2.343 7.508 12.474 7.224L27.29 7.53 14.817.306z" fill-rule="evenodd" stroke-linejoin="round" stroke-width=".267"></path><path fill="#ce3222" stroke="#4b120c" d="m.264 11.108 2.08-3.6 12.473 7.224-2.08 3.6z" fill-rule="evenodd" stroke-width=".265"></path><path fill="#a2281b" stroke="#4b120c" d="m16.895 18.333-2.078-3.6L27.29 7.53l2.079 3.601z" fill-rule="evenodd" stroke-width=".265"></path><path fill="none" stroke="#000000" d="M.264 9.333v1.775l12.474 7.225h4.157l12.474-7.202V9.367L27.29 7.53 14.817.306 2.343 7.508z" stroke-width=".529"></path><g transform="scale(.23075 .13322) rotate(45 1682.355 -3171.487)"><circle cx="2820.64" cy="255.199" r="25.979" fill="none" stroke="#ffffff" stroke-width="3.448"></circle><path fill="#ffffff" d="M2817.601 243.03h-9.126a3.038 3.038 0 0 0-3.027 3.043l-.018 18.253a3.051 3.051 0 0 0 3.042 3.042h24.337a3.051 3.051 0 0 0 3.042-3.042v-15.211a3.051 3.051 0 0 0-3.042-3.042h-12.169z"></path><g fill="#e05243" fill-rule="evenodd"><path stroke="#e05243" d="m2803.23 240.955-11.691-6.75" stroke-width="9.375"></path><path fill="#ffffff" d="m2757.335 182.443-11.691-6.75m.704-1.218a1.406 1.406 0 0 0-1.922.515 1.406 1.406 0 0 0 .515 1.92l11.692 6.75a1.406 1.406 0 0 0 1.92-.514 1.406 1.406 0 0 0-.514-1.921z" transform="translate(45.895 58.512)"></path><path fill="#ffffff" d="m2748.632 181.348-6.289-7.545 9.679 1.674c-2.276.996-3.638 3.372-3.39 5.871z" transform="translate(45.895 58.512)"></path><path fill="#ffffff" d="M2742.389 173.543a.264.264 0 0 0-.248.43l6.289 7.545a.264.264 0 0 0 .465-.196c-.237-2.388 1.062-4.653 3.232-5.603a.264.264 0 0 0-.061-.502zm.617.643 8.31 1.437c-1.787 1.06-2.87 2.952-2.906 5.049z" transform="translate(45.895 58.512)"></path></g><path fill="#e05243" stroke="#e05243" d="m2803.23 269.444-11.692 6.75" fill-rule="evenodd" stroke-width="9.375"></path><path fill="#ffffff" d="m2757.335 210.932-11.692 6.75m12.057-8.108a1.406 1.406 0 0 0-1.07.14l-11.69 6.75a1.406 1.406 0 0 0-.514 1.92 1.406 1.406 0 0 0 1.92.516l11.691-6.75a1.406 1.406 0 0 0 .516-1.921 1.406 1.406 0 0 0-.854-.655z" transform="translate(45.895 58.512)" fill-rule="evenodd"></path><path fill="#ffffff" d="m2752.035 217.922-9.678 1.673 6.288-7.545c-.274 2.47 1.102 4.837 3.39 5.872z" transform="translate(45.895 58.512)" fill-rule="evenodd"></path><path fill="#ffffff" d="M2748.639 211.787a.264.264 0 0 0-.196.094l-6.289 7.545a.264.264 0 0 0 .248.43l9.678-1.674a.264.264 0 0 0 .064-.5c-2.187-.99-3.498-3.247-3.236-5.602a.264.264 0 0 0-.27-.293zm-.22.945c.025 2.08 1.12 3.963 2.919 5.043l-8.32 1.44z" transform="translate(45.895 58.512)" fill-rule="evenodd"></path><path fill="none" stroke="#e05243" d="m2838.051 240.955 11.691-6.75" stroke-width="9.375"></path><path fill="#ffffff" d="m2792.156 182.443 5.519-3.187 6.172-3.563" transform="translate(45.895 58.512)" fill-rule="evenodd"></path><path fill="#ffffff" d="M2804.21 174.334a1.406 1.406 0 0 0-1.065.14l-6.174 3.565-5.518 3.186a1.406 1.406 0 0 0-.516 1.921 1.406 1.406 0 0 0 1.922.514l5.518-3.185 6.174-3.565a1.406 1.406 0 0 0 .513-1.92 1.406 1.406 0 0 0-.853-.656z" transform="translate(45.895 58.512)" fill-rule="evenodd"></path><path fill="#ffffff" d="m2797.455 175.453 9.679-1.673-6.289 7.545c.275-2.47-1.102-4.837-3.39-5.872z" transform="translate(45.895 58.512)" fill-rule="evenodd"></path><path fill="#ffffff" d="m2807.09 173.52-9.68 1.673a.264.264 0 0 0-.064.5c2.187.99 3.5 3.247 3.239 5.602a.264.264 0 0 0 .462.2l6.29-7.546a.264.264 0 0 0-.247-.43zm-.617.642-5.4 6.48c-.025-2.079-1.121-3.962-2.92-5.042z" transform="translate(45.895 58.512)" fill-rule="evenodd"></path><g fill="#ffffff" fill-rule="evenodd"><path stroke="#e05243" d="m2838.051 269.444 11.691 6.75" stroke-width="9.375"></path><path d="m2792.156 210.932 11.691 6.75m-10.987-7.967a1.406 1.406 0 0 0-1.923.514 1.406 1.406 0 0 0 .516 1.921l11.692 6.75a1.406 1.406 0 0 0 1.92-.515 1.406 1.406 0 0 0-.514-1.92z" transform="translate(45.895 58.512)"></path><path d="m2800.859 212.027 6.288 7.545-9.678-1.674c2.276-.996 3.638-3.372 3.39-5.871z" transform="translate(45.895 58.512)"></path><path d="M2800.756 211.783a.264.264 0 0 0-.16.27c.237 2.388-1.062 4.653-3.233 5.603a.264.264 0 0 0 .061.502l9.678 1.674a.264.264 0 0 0 .248-.43l-6.289-7.545a.264.264 0 0 0-.305-.074zm.324.922 5.406 6.486-8.312-1.44c1.787-1.06 2.87-2.95 2.906-5.046z" transform="translate(45.895 58.512)"></path></g></g></svg></g></g><g opacity="1"><g id="1153288c-34be-43d2-9519-0856f5b8d059" transform="translate(0 0)"><svg x="-632" y="672" width="63" height="95.068" viewBox="0 0 16.669 25.153"><path fill="#000" stroke="#000000" d="M16.668 22.903q0 1.64-.864 2.09-.865.452-2.296-.375L3.161 18.645q-1.432-.828-2.296-2.276Q.001 14.92 0 13.279q0-.724.042-1.39.042-.667.166-1.394.124-.728.313-1.303.19-.574.51-1.038.32-.464.733-.684.415-.219 1.013-.146.598.073 1.32.489.106.061.497.58.39.52.881 1.166.492.645 1.28 1.394.787.749 1.58 1.206.793.458 1.58.619.788.16 1.279.082.491-.078.882-.147.39-.068.497-.007.722.417 1.32 1.036.598.618 1.012 1.315.414.697.734 1.53.32.834.509 1.627.19.793.314 1.665.124.871.165 1.585.042.714.042 1.439zM12.88 8.509q0 2.173-1.331 2.942-1.332.77-3.214-.317T5.121 7.74Q3.789 5.434 3.789 3.26q0-2.173 1.332-2.942 1.332-.769 3.214.318 1.882 1.086 3.214 3.393 1.331 2.307 1.331 4.48z" stroke-width=".268"></path></svg></g></g></g><g pointer-events="auto"><g opacity="1"><g id="42c81d28-3c8d-444f-850b-a9ddeaab8a3e" transform="translate(0 0)"><svg x="-576" y="444" overflow="visible"><g transform="scale(1.415) matrix(0.707 0.409 -0.707 0.409 0 0)"><svg x="-32" y="-32" width="64" height="64"><svg width="64" height="64" viewBox="0 0 64 64"><defs><linearGradient id="a" x1="0%" x2="100%" y1="100%" y2="0%"><stop offset="0%" stop-color="#2E27AD"></stop><stop offset="100%" stop-color="#527FFF"></stop></linearGradient></defs><g fill="none" fill-rule="evenodd"><g fill="url(#a)"><path d="M0 0h64v64H0z"></path></g><path fill="#FFF" d="m35.508 48.15 2.916-2.219-2.916-2.219L36.7 42.1l3.976 3.025a1.014 1.014 0 0 1 0 1.614L36.7 49.764l-1.192-1.614ZM24.57 46.738a1.015 1.015 0 0 1 0-1.614l3.977-3.025 1.192 1.613-2.915 2.22 2.915 2.218-1.192 1.614-3.977-3.026Zm-1.392 5.245h18.89V39.88H23.18v12.103Zm19.885-14.12H22.185a1 1 0 0 0-.994 1.008v14.12c0 .557.444 1.009.994 1.009h20.879c.548 0 .994-.452.994-1.009v-14.12c0-.557-.446-1.009-.994-1.009Zm-10.979 13.4-1.904-.578 2.982-10.086 1.905.579-2.983 10.086Zm14.1-26.157c-2.47 0-4.531.803-5.926 2.167-.361-6.004-1.702-11.784-3.936-14.9 7.746 1.432 13.643 7.17 15.252 14.845a7.85 7.85 0 0 0-5.39-2.112Zm-8.138 2.248a7.865 7.865 0 0 0-5.543-2.248c-2.366 0-4.35.71-5.734 1.953.572-9.013 3.28-15.039 5.741-15.042h.005c2.51.005 5.27 6.268 5.768 15.569l-.237-.232Zm-13.307.371-.238-.239-.136-.132a7.862 7.862 0 0 0-5.541-2.248c-2.06 0-3.84.545-5.181 1.518 1.9-7.353 7.665-12.82 15.05-14.235-2.285 3.197-3.635 9.18-3.954 15.336ZM54 31.176l-.001-.094C53.786 19.067 44.574 10.017 32.536 10h-.032c-11.806 0-21.05 9.058-21.503 21.062-.018.378.188.72.491.911l-.004.006 7.64 5.045 1.086-1.69-7.055-4.659c.601-2.171 2.744-3.552 5.666-3.552 1.577 0 3.054.597 4.158 1.681l.137.133c1.014.993 1.573 2.725 1.578 2.755.006.04.006.08.015.113l.998 3.737 1.917-.528-.957-3.584.003-.04c.343-3.147 3.236-4.267 5.83-4.267 1.578 0 3.055.597 4.16 1.681l.276.27c.871.844 1.272 1.234 1.396 2.366l-.965 3.571 1.919.533 1.005-3.724c.009-.033.017-.069.024-.103.005-.031.007-.063.01-.095 0-.005.003-.009.003-.013.226-3.311 3.294-4.486 5.852-4.486 1.572 0 3.047.597 4.151 1.681.789.774 1.36 1.37 1.576 1.917l-6.286 4.44 1.135 1.656 6.813-4.812-.01-.016a.994.994 0 0 0 .437-.813Z"></path></g></svg></svg></g></svg></g></g><g opacity="1"><g id="a9ee2911-160c-4742-9e88-2d1431aa409a" transform="translate(0 0)"><svg x="-64" y="592" overflow="visible"><g transform="scale(1.415) matrix(0.707 0.409 -0.707 0.409 0 0)"><svg x="-32" y="-32" width="64" height="64"><svg width="64" height="64" viewBox="0 0 64 64"><defs><linearGradient id="a" x1="0%" x2="100%" y1="100%" y2="0%"><stop offset="0%" stop-color="#2E27AD"></stop><stop offset="100%" stop-color="#527FFF"></stop></linearGradient></defs><g fill="none" fill-rule="evenodd"><g fill="url(#a)"><path d="M0 0h64v64H0z"></path></g><path fill="#FFF" d="M54 11v8h-2v-5.586l-6.293 6.293-1.414-1.414L50.586 12h-5.461v-2H53a1 1 0 0 1 1 1Zm-42 7.875h-2V11a1 1 0 0 1 1-1h8v2h-5.586l6.293 6.293-1.414 1.414L12 13.414v5.461Zm7.707 26.832L13.414 52h5.461v2H11a1 1 0 0 1-1-1v-8h2v5.586l6.293-6.293 1.414 1.414ZM51.5 31.781c0-2.429-2.866-4.849-7.667-6.474l.641-1.894c5.736 1.941 9.026 4.991 9.026 8.368 0 3.377-3.29 6.427-9.026 8.369l-.641-1.895c4.801-1.624 7.667-4.045 7.667-6.474Zm-38.957 0c0 2.324 2.681 4.679 7.172 6.3l-.68 1.88c-5.396-1.947-8.492-4.928-8.492-8.18 0-3.251 3.096-6.233 8.492-8.18l.68 1.881c-4.491 1.621-7.172 3.976-7.172 6.299ZM52 45.125h2V53a1 1 0 0 1-1 1h-8v-2h5.586l-6.293-6.293 1.414-1.414L52 50.586v-5.461ZM32.022 31.402c-5.023 0-7.896-1.343-8.022-1.919v-3.226c2.159 1.009 5.609 1.336 8 1.336s5.841-.327 8-1.336v3.226c-.106.574-2.949 1.919-7.978 1.919Zm0 5.728c-5.023 0-7.896-1.344-8.022-1.92v-3.254c1.953.981 5.055 1.446 8.022 1.446 2.951 0 6.033-.464 7.978-1.442v3.25c-.106.575-2.948 1.92-7.978 1.92ZM32 42.268c-5.05 0-7.896-1.351-8-1.922v-2.663c1.953.982 5.055 1.447 8.022 1.447 2.951 0 6.033-.464 7.978-1.443v2.655c-.104.575-2.95 1.926-8 1.926Zm0-20.075c4.971 0 7.642 1.177 7.982 1.701-.34.523-3.011 1.699-7.982 1.699-5.091 0-7.767-1.232-8-1.644v-.019c.233-.504 2.909-1.737 8-1.737Zm0-2c-3.714 0-10 .78-10 3.701v16.452c0 2.695 5.184 3.922 10 3.922s10-1.227 10-3.922V23.894c0-2.921-6.286-3.701-10-3.701Z"></path></g></svg></svg></g></svg></g></g><g opacity="1"><g id="a8a23d9b-5c60-4877-9685-8daef659d0f5" transform="translate(0 0)"><svg x="64" y="518" overflow="visible"><g transform="scale(1.415) matrix(0.707 0.409 -0.707 0.409 0 0)"><svg x="-32" y="-32" width="64" height="64"><svg width="64" height="64" viewBox="0 0 64 64"><defs><linearGradient id="a" x1="0%" x2="100%" y1="100%" y2="0%"><stop offset="0%" stop-color="#BD0816"></stop><stop offset="100%" stop-color="#FF5252"></stop></linearGradient></defs><g fill="none" fill-rule="evenodd"><g fill="url(#a)"><path d="M0 0h64v64H0z"></path></g><path fill="#FFF" d="M12 47h40V18H12v29Zm42-30v31a1 1 0 0 1-1 1H11a1 1 0 0 1-1-1V17a1 1 0 0 1 1-1h42a1 1 0 0 1 1 1ZM35 39h12v-2H35v2Zm10-4h4v-2h-4v2Zm-10 0h6v-2h-6v2Zm-12.5 2.5a.5.5 0 1 0 1.002-.002.5.5 0 0 0-1.002.002Zm3 0a2.501 2.501 0 0 1-1.5 2.288V42h-2v-2.212a2.501 2.501 0 0 1-1.5-2.288c0-1.378 1.121-2.5 2.5-2.5s2.5 1.122 2.5 2.5ZM16 42.995 29.995 43l.001-2H27v-2h2.997l.001-2H27v-2h2.999L30 33.005 16.005 33 16 42.995Zm2-11.994 10.001.003.001-5.004c0-1.024-.802-1.727-1.28-2.055-.875-.6-2.548-.945-3.72-.945H23c-2.127 0-4.997 1.232-4.998 3L18 31.001Zm-3.707 13.7a1 1 0 0 1-.293-.707L14.005 32a1 1 0 0 1 1-1H16l.002-5c.001-3.089 3.874-5 6.998-5h.002c1.565 0 3.651.473 4.852 1.295 1.385.951 2.149 2.267 2.148 3.705l-.001 5.005.999.001a1 1 0 0 1 1 1L31.995 44a1 1 0 0 1-1 1L15 44.994a.996.996 0 0 1-.707-.293ZM47 30h2v-2h-2v2Zm-12 0h9v-2h-9v2Z"></path></g></svg></svg></g></svg></g></g><g opacity="1"><g id="0cb16025-6c8f-40c1-a7a9-e18989cd72da" transform="translate(0 0)"><svg x="-448" y="370" overflow="visible"><g transform="scale(1.415) matrix(0.707 0.409 -0.707 0.409 0 0)"><svg x="-32" y="-32" width="64" height="64"><svg width="64" height="64" viewBox="0 0 64 64"><defs><linearGradient id="a" x1="0%" x2="100%" y1="100%" y2="0%"><stop offset="0%" stop-color="#BD0816"></stop><stop offset="100%" stop-color="#FF5252"></stop></linearGradient></defs><g fill="none" fill-rule="evenodd"><g fill="url(#a)"><path d="M0 0h64v64H0z"></path></g><path fill="#FFF" d="M12 47h40V18H12v29Zm42-30v31a1 1 0 0 1-1 1H11a1 1 0 0 1-1-1V17a1 1 0 0 1 1-1h42a1 1 0 0 1 1 1ZM35 39h12v-2H35v2Zm10-4h4v-2h-4v2Zm-10 0h6v-2h-6v2Zm-12.5 2.5a.5.5 0 1 0 1.002-.002.5.5 0 0 0-1.002.002Zm3 0a2.501 2.501 0 0 1-1.5 2.288V42h-2v-2.212a2.501 2.501 0 0 1-1.5-2.288c0-1.378 1.121-2.5 2.5-2.5s2.5 1.122 2.5 2.5ZM16 42.995 29.995 43l.001-2H27v-2h2.997l.001-2H27v-2h2.999L30 33.005 16.005 33 16 42.995Zm2-11.994 10.001.003.001-5.004c0-1.024-.802-1.727-1.28-2.055-.875-.6-2.548-.945-3.72-.945H23c-2.127 0-4.997 1.232-4.998 3L18 31.001Zm-3.707 13.7a1 1 0 0 1-.293-.707L14.005 32a1 1 0 0 1 1-1H16l.002-5c.001-3.089 3.874-5 6.998-5h.002c1.565 0 3.651.473 4.852 1.295 1.385.951 2.149 2.267 2.148 3.705l-.001 5.005.999.001a1 1 0 0 1 1 1L31.995 44a1 1 0 0 1-1 1L15 44.994a.996.996 0 0 1-.707-.293ZM47 30h2v-2h-2v2Zm-12 0h9v-2h-9v2Z"></path></g></svg></svg></g></svg></g></g><g opacity="1"><g id="f5482e29-99c4-4ccb-a2cf-adf45b7e15bf" transform="translate(0 0)"><svg x="-704" y="518" overflow="visible"><g transform="scale(1.415) matrix(0.707 0.409 -0.707 0.409 0 0)"><svg x="-32" y="-32" width="64" height="64"><svg width="64" height="64" viewBox="0 0 64 64"><defs><linearGradient id="a" x1="0%" x2="100%" y1="100%" y2="0%"><stop offset="0%" stop-color="#BD0816"></stop><stop offset="100%" stop-color="#FF5252"></stop></linearGradient></defs><g fill="none" fill-rule="evenodd"><g fill="url(#a)"><path d="M0 0h64v64H0z"></path></g><path fill="#FFF" d="M12 47h40V18H12v29Zm42-30v31a1 1 0 0 1-1 1H11a1 1 0 0 1-1-1V17a1 1 0 0 1 1-1h42a1 1 0 0 1 1 1ZM35 39h12v-2H35v2Zm10-4h4v-2h-4v2Zm-10 0h6v-2h-6v2Zm-12.5 2.5a.5.5 0 1 0 1.002-.002.5.5 0 0 0-1.002.002Zm3 0a2.501 2.501 0 0 1-1.5 2.288V42h-2v-2.212a2.501 2.501 0 0 1-1.5-2.288c0-1.378 1.121-2.5 2.5-2.5s2.5 1.122 2.5 2.5ZM16 42.995 29.995 43l.001-2H27v-2h2.997l.001-2H27v-2h2.999L30 33.005 16.005 33 16 42.995Zm2-11.994 10.001.003.001-5.004c0-1.024-.802-1.727-1.28-2.055-.875-.6-2.548-.945-3.72-.945H23c-2.127 0-4.997 1.232-4.998 3L18 31.001Zm-3.707 13.7a1 1 0 0 1-.293-.707L14.005 32a1 1 0 0 1 1-1H16l.002-5c.001-3.089 3.874-5 6.998-5h.002c1.565 0 3.651.473 4.852 1.295 1.385.951 2.149 2.267 2.148 3.705l-.001 5.005.999.001a1 1 0 0 1 1 1L31.995 44a1 1 0 0 1-1 1L15 44.994a.996.996 0 0 1-.707-.293ZM47 30h2v-2h-2v2Zm-12 0h9v-2h-9v2Z"></path></g></svg></svg></g></svg></g></g></g><g pointer-events="auto"><g opacity="1"><g id="6d830b6b-ecec-4ae7-85eb-0157159f878e" transform="translate(0 0)"><svg x="-448" y="666" overflow="visible"><g transform="scale(1.7469281074217107) matrix(0.707 0.409 -0.707 0.409 0 0)"><circle cx="0" cy="0" fill="#000000" r="23"></circle><svg width="27" height="32" x="-13.5" y="-16" style="fill: rgb(255, 255, 255);"><svg xmlns="http://www.w3.org/2000/svg" width="27" height="32" viewBox="0 0 27 32"><path d="M13.714 2.286c7.571 0 13.714 6.143 13.714 13.714 0 6.054-3.929 11.196-9.375 13.018-.696.125-.946-.304-.946-.661 0-.446.018-1.929.018-3.768 0-1.286-.429-2.107-.929-2.536 3.054-.339 6.268-1.5 6.268-6.768 0-1.5-.536-2.714-1.411-3.679.143-.357.607-1.75-.143-3.643-1.143-.357-3.768 1.411-3.768 1.411a12.895 12.895 0 0 0-6.858 0S7.659 7.606 6.516 7.963c-.75 1.893-.286 3.286-.143 3.643-.875.964-1.411 2.179-1.411 3.679 0 5.25 3.196 6.429 6.25 6.768-.393.357-.75.964-.875 1.839-.786.357-2.786.964-3.982-1.143-.75-1.304-2.107-1.411-2.107-1.411-1.339-.018-.089.839-.089.839.893.411 1.518 2 1.518 2 .804 2.446 4.625 1.625 4.625 1.625 0 1.143.018 2.214.018 2.554 0 .357-.25.786-.946.661-5.446-1.821-9.375-6.964-9.375-13.018 0-7.571 6.143-13.714 13.714-13.714zM5.196 21.982c.036-.071-.018-.161-.125-.214-.107-.036-.196-.018-.232.036-.036.071.018.161.125.214.089.054.196.036.232-.036zm.554.607c.071-.054.054-.179-.036-.286-.089-.089-.214-.125-.286-.054-.071.054-.054.179.036.286.089.089.214.125.286.054zm.536.804c.089-.071.089-.214 0-.339-.071-.125-.214-.179-.304-.107-.089.054-.089.196 0 .321s.232.179.304.125zm.75.75c.071-.071.036-.232-.071-.339-.125-.125-.286-.143-.357-.054-.089.071-.054.232.071.339.125.125.286.143.357.054zm1.018.446c.036-.107-.071-.232-.232-.286-.143-.036-.304.018-.339.125s.071.232.232.268c.143.054.304 0 .339-.107zm1.125.09c0-.125-.143-.214-.304-.196-.161 0-.286.089-.286.196 0 .125.125.214.304.196.161 0 .286-.089.286-.196zm1.035-.179c-.018-.107-.161-.179-.321-.161-.161.036-.268.143-.25.268.018.107.161.179.321.143s.268-.143.25-.25z"></path></svg></svg></g></svg></g></g><g opacity="1"><g id="701313ce-b095-4f85-a273-8ac7b537157d" transform="translate(0 0)"><svg x="-576" y="592" overflow="visible"><g transform="scale(1.4131949617798671) matrix(0.707 0.409 -0.707 0.409 0 0)"><circle cx="0" cy="0" fill="transparent" r="39"></circle><svg width="64" height="64" x="-32" y="-32" style="fill: rgb(255, 255, 255);"><svg xmlns="http://www.w3.org/2000/svg" width="64" height="64" viewBox="0 0 64 64"><defs><linearGradient id="CodePipeline_svg__a" x1="0%" x2="100%" y1="100%" y2="0%"><stop offset="0%" stop-color="#2E27AD"></stop><stop offset="100%" stop-color="#527FFF"></stop></linearGradient></defs><g fill="none" fill-rule="evenodd"><g fill="url(#CodePipeline_svg__a)"><path d="M0 0h64v64H0z"></path></g><path fill="#FFF" d="M23 25h4v-2h-4v2Zm6.732 23.123-1.849-.759 5.943-14.503 1.852.759-5.946 14.503Zm6.629-4.463 4.117-3.612-4.113-3.566 1.311-1.51 4.978 4.317a1 1 0 0 1 .004 1.507l-4.978 4.368-1.319-1.504Zm-15.783-3.54a.998.998 0 0 1 .338-.756l4.962-4.386 1.324 1.498-4.103 3.628 4.077 3.516-1.307 1.514-4.944-4.263a1.001 1.001 0 0 1-.347-.751ZM48.535 28h-33.07c-1.751 0-3.189-1.311-3.418-3H21v-2h-9v-6.536A3.469 3.469 0 0 1 15.465 13h33.07A3.469 3.469 0 0 1 52 16.464V23H29v2h22.953c-.229 1.689-1.667 3-3.418 3ZM18 52h27V30H18v22Zm30.535-41h-33.07A5.47 5.47 0 0 0 10 16.464v8.072A5.47 5.47 0 0 0 15.465 30H16v23a1 1 0 0 0 1 1h29a1 1 0 0 0 1-1V30h1.535A5.47 5.47 0 0 0 54 24.536v-8.072A5.47 5.47 0 0 0 48.535 11Z"></path></g></svg></svg></g></svg></g></g><g opacity="1"><g id="730d4a4f-cc4b-4416-bb3e-880b90050bba" transform="translate(0 0)"><svg x="-256" y="481" overflow="visible"><g transform="scale(1.4131949617798671) matrix(0.707 0.409 -0.707 0.409 0 0)"><circle cx="0" cy="0" fill="transparent" r="39"></circle><svg width="64" height="64" x="-32" y="-32" style="fill: rgb(255, 255, 255);"><svg xmlns="http://www.w3.org/2000/svg" width="64" height="64" viewBox="0 0 64 64"><defs><linearGradient id="EC2_svg__a" x1="0%" x2="100%" y1="100%" y2="0%"><stop offset="0%" stop-color="#C8511B"></stop><stop offset="100%" stop-color="#F90"></stop></linearGradient></defs><g fill="none" fill-rule="evenodd"><g fill="url(#EC2_svg__a)"><path d="M0 0h64v64H0z"></path></g><path fill="#FFF" d="M22 41h19V23H22v18Zm21-18h3v2h-3v2h3v2h-3v2h3v2h-3v3h3v2h-3v2h3v2h-3.137c-.255.587-.84 1-1.519 1H41v3h-2v-3h-2v3h-2v-3h-2v3h-2v-3h-2v3h-2v-3h-3v3h-2v-3h-.344a1.66 1.66 0 0 1-1.519-1H18v-2h2v-2h-2v-2h2v-3h-2v-2h2v-2h-2v-2h2v-2h-2v-2h2v-.344c0-.913.743-1.656 1.656-1.656H22v-3h2v3h3v-3h2v3h2v-3h2v3h2v-3h2v3h2v-3h2v3h.344c.913 0 1.656.743 1.656 1.656V23ZM32 52H12V32h4v-2h-4.157A1.845 1.845 0 0 0 10 31.843v20.314c0 1.016.826 1.843 1.843 1.843h20.314A1.845 1.845 0 0 0 34 52.157V48h-2v4Zm22-40.157v20.314A1.845 1.845 0 0 1 52.157 34H48v-2h4V12H32v4h-2v-4.157c0-1.016.826-1.843 1.843-1.843h20.314c1.017 0 1.843.827 1.843 1.843Z"></path></g></svg></svg></g></svg></g></g><g opacity="1"><g id="0c8be1f0-bafc-45d1-ac4d-7fbd15009dae" transform="translate(0 0)"><svg x="-128" y="407" overflow="visible"><g transform="scale(1.4131949617798671) matrix(0.707 0.409 -0.707 0.409 0 0)"><circle cx="0" cy="0" fill="transparent" r="39"></circle><svg width="64" height="64" x="-32" y="-32" style="fill: rgb(255, 255, 255);"><svg xmlns="http://www.w3.org/2000/svg" width="64" height="64" viewBox="0 0 64 64"><defs><linearGradient id="Elastic-Load-Balancing_svg__a" x1="0%" x2="100%" y1="100%" y2="0%"><stop offset="0%" stop-color="#4D27A8"></stop><stop offset="100%" stop-color="#A166FF"></stop></linearGradient></defs><g fill="none" fill-rule="evenodd"><g fill="url(#Elastic-Load-Balancing_svg__a)"><path d="M0 0h64v64H0z"></path></g><path fill="#FFF" d="M23.5 42C17.71 42 13 37.29 13 31.5S17.71 21 23.5 21 34 25.71 34 31.5 29.29 42 23.5 42M48 48c0 1.654-1.346 3-3 3s-3-1.346-3-3 1.346-3 3-3 3 1.346 3 3m-3-35c1.654 0 3 1.346 3 3s-1.346 3-3 3-3-1.346-3-3 1.346-3 3-3m3 16c1.654 0 3 1.346 3 3s-1.346 3-3 3-3-1.346-3-3 1.346-3 3-3m-12.099 4h7.201A5.007 5.007 0 0 0 48 37c2.757 0 5-2.243 5-5s-2.243-5-5-5a5.007 5.007 0 0 0-4.898 4h-7.127a12.446 12.446 0 0 0-.879-4.144l7.703-6.389A4.94 4.94 0 0 0 45 21c2.757 0 5-2.243 5-5s-2.243-5-5-5-5 2.243-5 5c0 1.224.459 2.331 1.191 3.201l-7.019 5.823C31.977 21.42 28.021 19 23.5 19 16.607 19 11 24.607 11 31.5S16.607 44 23.5 44c4.243 0 7.993-2.129 10.254-5.371l7.437 6.17C40.459 45.669 40 46.776 40 48c0 2.757 2.243 5 5 5s5-2.243 5-5-2.243-5-5-5a4.94 4.94 0 0 0-2.201.533l-8.029-6.66c.574-1.2.966-2.5 1.131-3.873"></path></g></svg></svg></g></svg></g></g><g opacity="1"><g id="06781b5d-cb33-46e0-9a06-b726e59fac3f" transform="translate(0 0)"><svg x="192" y="444" overflow="visible"><g transform="scale(1.4131949617798671) matrix(0.707 0.409 -0.707 0.409 0 0)"><circle cx="0" cy="0" fill="transparent" r="39"></circle><svg width="64" height="64" x="-32" y="-32" style="fill: rgb(255, 255, 255);"><svg xmlns="http://www.w3.org/2000/svg" width="64" height="64" viewBox="0 0 64 64"><defs><linearGradient id="Database-Migration-Service_svg__a" x1="0%" x2="100%" y1="100%" y2="0%"><stop offset="0%" stop-color="#2E27AD"></stop><stop offset="100%" stop-color="#527FFF"></stop></linearGradient></defs><g fill="none" fill-rule="evenodd"><g fill="url(#Database-Migration-Service_svg__a)"><path d="M0 0h64v64H0z"></path></g><path fill="#FFF" d="M34.995 53h1.996v-5h-1.996v5Zm-7.987 0h1.996v-5h-1.996v5Zm14.995-2H44v-4h-1.997v4ZM20.02 51h1.997v-4h-1.997v4Zm11.98-23c-6.197 0-10.002-1.967-10.002-3.376v-5.628C24.339 20.429 28.364 21 32 21s7.661-.571 10.003-2.004v5.628C42.003 26.033 38.197 28 32 28Zm0 8c-6.44 0-10.002-1.9-10.002-3.214v-5.072C24.09 29.125 27.676 30 32 30c4.323 0 7.909-.875 10.003-2.286v5.072C42.003 34.1 38.441 36 32 36Zm0 8c-6.177 0-10.002-1.557-10.002-3v-5.178C24.072 37.177 27.626 38 32 38c4.373 0 7.928-.823 10.003-2.178V41c0 1.443-3.825 3-10.003 3Zm0-31c6.527 0 10.004 1.742 10.004 3S38.526 19 32 19c-6.527 0-10.003-1.742-10.003-3S25.473 13 32 13Zm0-2C26.464 11 20 12.31 20 16v25c0 3.69 6.463 5 12 5 5.536 0 12-1.31 12-5V16c0-3.69-6.464-5-12-5Z"></path></g></svg></svg></g></svg></g></g><g opacity="1"><g id="f6bc7bc7-bef9-4163-989a-99634cb046cc" transform="translate(0 0)"><svg x="448" y="444" overflow="visible"><g transform="scale(1.4131949617798671) matrix(0.707 0.409 -0.707 0.409 0 0)"><circle cx="0" cy="0" fill="transparent" r="31"></circle><svg width="48" height="48" x="-24" y="-24" style="fill: rgb(255, 255, 255);"><svg xmlns="http://www.w3.org/2000/svg" width="48" height="48" viewBox="0 0 48 48"><g fill="none" fill-rule="evenodd"><path fill="#3F8624" d="m43.165 38.081 1.696 1.697-1.414 1.414L41.256 39h-3.172l1.638 2.841 2.894.813-.541 1.926-2.268-.639-.622 2.318-1.932-.518.766-2.85-1.608-2.789-1.582 2.735.742 2.916-1.937.494-.582-2.285-2.319.621-.517-1.932 2.851-.763L34.738 39h-3.117l-2.257 2.201-1.396-1.432 1.688-1.646-1.697-1.696 1.414-1.414L31.361 37h3.259l-1.525-2.637-2.891-.813.541-1.926 2.27.64.622-2.319 1.931.518-.766 2.858 1.609 2.782 1.58-2.74-.741-2.912 1.937-.494.582 2.285 2.318-.62.517 1.931-2.857.766L38.202 37h3.207l2.047-1.996 1.396 1.431-1.687 1.646ZM22.869 4.001c10.403 0 17.733 3.223 17.87 5.012l-.025.197c-.023.081-.07.166-.119.25-.019.031-.029.062-.051.095-.057.081-.137.163-.217.245-.035.036-.06.072-.101.11-.087.08-.198.16-.305.24-.054.04-.098.08-.156.12-.118.08-.256.16-.395.24-.068.04-.129.08-.203.12-.15.082-.323.163-.494.244-.08.038-.152.076-.237.114-.191.085-.402.17-.615.253-.082.033-.156.067-.242.098-.244.092-.508.181-.777.27l-.201.07c-.315.1-.65.197-.997.293l-.099.03c-3.107.841-7.449 1.461-12.631 1.461-8.422 0-14.631-1.64-16.918-3.209l-.026-.02a3.832 3.832 0 0 1-.423-.335c-.023-.02-.037-.04-.057-.06a2.244 2.244 0 0 1-.255-.288c-.02-.03-.03-.06-.048-.09a1.138 1.138 0 0 1-.12-.25l-.025-.198C5.139 7.224 12.468 4 22.869 4Zm20.288 22.422c-.292.055-1.031.086-2.699-.322l.219-1.635c1.74 1.056 2.307 1.681 2.48 1.957ZM23.117 20l1 .001-.999.001-.001-.002ZM22.874 44c-8.459 0-13.596-2.168-13.596-3.12a.98.98 0 0 0-.009-.134L5.441 12.271c.233.136.48.266.74.393.145.071.302.138.455.206.16.07.322.142.49.21.178.071.358.142.544.211.157.058.321.114.485.17.418.142.854.278 1.309.405.093.027.181.055.275.08.248.067.505.13.763.192a34.115 34.115 0 0 0 1.257.283c.125.026.252.05.378.074.966.19 1.974.352 3.016.485.117.015.234.031.352.045.339.041.68.08 1.023.117a61.546 61.546 0 0 0 5.055.307l.145.002c.38.007.761.016 1.141.016.365 0 .733-.009 1.1-.015.069-.002.137-.002.208-.003.343-.007.686-.018 1.031-.03l.422-.018a83.26 83.26 0 0 0 1.01-.05l.257-.018a59.001 59.001 0 0 0 1.917-.154l.458-.043c.296-.032.589-.066.881-.1l.553-.07c.281-.037.561-.074.836-.114.205-.03.404-.065.605-.097a43.585 43.585 0 0 0 2.57-.492c.22-.05.436-.103.651-.156.196-.048.395-.096.586-.147.365-.098.721-.2 1.065-.308.153-.048.296-.099.446-.149a19.388 19.388 0 0 0 1.102-.402c.215-.087.42-.176.621-.267.117-.053.237-.104.348-.157.268-.13.524-.264.762-.403l-1.785 13.277c-4.56-1.433-10.643-4.204-13.401-5.5 0-.018.005-.033.005-.05 0-1.104-.897-2-2-2-1.102 0-2 .896-2 2 0 1.101.898 2 2 2 .337 0 .651-.093.93-.24 3.133 1.48 9.457 4.355 14.196 5.8l-.086.637 1.983.268.049-.37c1.02.238 1.859.36 2.542.36.991 0 1.658-.253 2.083-.76.35-.416.488-.939.387-1.474-.215-1.15-1.54-2.368-4.235-3.903l1.703-12.67c.004-.023.01-.046.013-.068l.05-.388a.947.947 0 0 0 .009-.13C42.741 4.9 32.269 2 22.869 2 13.472 2 3 4.9 3 9.063c0 .043.003.087.009.13l.051.388.005.032 4.214 31.343C7.41 44.63 16.886 46 22.874 46c2.03 0 4.068-.129 6.059-.384l-.254-1.984c-1.907.244-3.86.368-5.805.368Z"></path></g></svg></svg></g></svg></g></g><g opacity="1"><g id="9466d6f5-6f80-40ba-a8f5-e96c8afbfa0d" transform="translate(0 0)"><svg x="128" y="259" overflow="visible"><g transform="scale(1.4131949617798671) matrix(0.707 0.409 -0.707 0.409 0 0)"><circle cx="0" cy="0" fill="transparent" r="39"></circle><svg width="64" height="64" x="-32" y="-32" style="fill: rgb(255, 255, 255);"><svg xmlns="http://www.w3.org/2000/svg" width="64" height="64" viewBox="0 0 64 64"><defs><linearGradient id="CloudFront_svg__a" x1="0%" x2="100%" y1="100%" y2="0%"><stop offset="0%" stop-color="#4D27A8"></stop><stop offset="100%" stop-color="#A166FF"></stop></linearGradient></defs><g fill="none" fill-rule="evenodd"><g fill="url(#CloudFront_svg__a)"><path d="M0 0h64v64H0z"></path></g><path fill="#FFF" d="M41.5 43.5c-1.103 0-2-.897-2-2s.897-2 2-2 2 .897 2 2-.897 2-2 2Zm0-6c-2.206 0-4 1.794-4 4s1.794 4 4 4 4-1.794 4-4-1.794-4-4-4Zm-19-5c-1.103 0-2-.897-2-2s.897-2 2-2 2 .897 2 2-.897 2-2 2Zm0-6c-2.206 0-4 1.794-4 4s1.794 4 4 4 4-1.794 4-4-1.794-4-4-4Zm22.889 20.624a28.66 28.66 0 0 0-.704-1.533l-1.789.895c.274.549.524 1.113.76 1.679a18.996 18.996 0 0 1-2.628 1.575c.356-.875.666-1.765.946-2.728l-1.92-.558a25.23 25.23 0 0 1-1.87 4.679A19.193 19.193 0 0 1 32.5 52c-3.035 0-5.933-.686-8.629-2.024-1.368-3.361-2.033-6.442-2.033-9.417 0-1.292.225-2.363.484-3.603.064-.304.128-.613.192-.932l-1.963-.386c-.061.311-.124.612-.186.907-.271 1.293-.527 2.515-.527 4.014 0 2.515.436 5.085 1.316 7.795A19.458 19.458 0 0 1 13 32.5c0-.111.01-.227.012-.339a24.175 24.175 0 0 1 4.842-.59l-.05-1.999c-1.635.04-3.11.207-4.641.512.918-7.401 6.049-13.69 13.16-16.065 1.55.799 2.697 1.505 3.812 2.351l1.209-1.594a24.194 24.194 0 0 0-2.198-1.477A19.548 19.548 0 0 1 32.5 13c2.532 0 5.032.494 7.349 1.439a32.58 32.58 0 0 0-1.606.532l.68 1.881c1.393-.503 2.485-.812 3.648-1.031C48.399 19.341 52 25.667 52 32.5a19.358 19.358 0 0 1-6.611 14.624Zm-2.381-33.375A21.385 21.385 0 0 0 32.5 11c-2.108 0-4.176.301-6.143.895-8.634 2.569-14.789 10.335-15.312 19.301-.035.429-.045.866-.045 1.304a21.466 21.466 0 0 0 11.354 18.955A21.541 21.541 0 0 0 32.5 54a21.1 21.1 0 0 0 6.937-1.157 21.038 21.038 0 0 0 6.209-3.336C50.955 45.399 54 39.2 54 32.5a21.517 21.517 0 0 0-10.992-18.751Zm-4.624 23.662-1.381 1.447c-2.981-2.843-5.956-4.712-9.366-5.883l.65-1.892c3.692 1.268 6.901 3.279 10.097 6.328Zm.06-15.047c2.838 4.328 4.436 9.08 4.749 14.124l-1.996.124c-.292-4.693-1.78-9.117-4.425-13.152l1.672-1.096Zm-11.993 4.433-1.678-1.089c1.543-2.376 2.866-3.95 4.563-5.43l1.314 1.508c-1.547 1.349-2.764 2.801-4.199 5.011ZM34.5 16.5c1.103 0 2 .897 2 2s-.897 2-2 2-2-.897-2-2 .897-2 2-2Zm0 6c2.206 0 4-1.794 4-4s-1.794-4-4-4-4 1.794-4 4 1.794 4 4 4Z"></path></g></svg></svg></g></svg></g></g><g opacity="1"><g id="95ea2df8-d510-41ed-abf1-01bbb73b32d8" transform="translate(0 0)"><svg x="0" y="333" overflow="visible"><g transform="scale(1.4131949617798671) matrix(0.707 0.409 -0.707 0.409 0 0)"><circle cx="0" cy="0" fill="transparent" r="39"></circle><svg width="64" height="64" x="-32" y="-32" style="fill: rgb(255, 255, 255);"><svg xmlns="http://www.w3.org/2000/svg" width="64" height="64" viewBox="0 0 64 64"><defs><linearGradient id="Route-53_svg__a" x1="0%" x2="100%" y1="100%" y2="0%"><stop offset="0%" stop-color="#4D27A8"></stop><stop offset="100%" stop-color="#A166FF"></stop></linearGradient></defs><g fill="none" fill-rule="evenodd"><g fill="url(#Route-53_svg__a)"><path d="M0 0h64v64H0z"></path></g><path fill="#FFF" d="M38.761 32.527c.575.53.862 1.243.862 2.137 0 .973-.349 1.75-1.049 2.33-.699.581-1.639.871-2.82.871a6.9 6.9 0 0 1-2.768-.595v-1.192c1.081.357 2.004.536 2.768.536.754 0 1.334-.169 1.741-.506.408-.337.611-.82.611-1.444 0-1.201-.759-1.802-2.278-1.802-.476 0-.947.025-1.414.074v-.983l3.126-3.41h-4.406v-1.221h6.059v1.177l-3.067 3.246a.753.753 0 0 1 .149-.015h.149c.983 0 1.761.266 2.337.797m-8.647-.26c.604.566.907 1.344.907 2.337 0 .973-.353 1.76-1.057 2.36-.705.601-1.633.901-2.783.901-1.012 0-1.96-.199-2.843-.595v-1.192c1.102.357 2.044.536 2.828.536.754 0 1.332-.17 1.734-.513.402-.343.602-.836.602-1.482 0-.705-.187-1.216-.565-1.534-.377-.317-.992-.476-1.846-.476-.615 0-1.384.05-2.307.149v-.983l.284-4.453H30.5v1.222h-4.182l-.195 3.023c.546-.1 1.037-.15 1.474-.15 1.072 0 1.911.283 2.517.85m11.147 10.697c-3.745.672-7.028 2.182-9.261 3.431-2.232-1.25-5.515-2.76-9.26-3.431-1.032-.185-6.174-1.256-6.174-4.14 0-1.361.497-2.282 1.451-3.924 1.116-1.926 2.646-4.564 2.646-8.226 0-2.564-.659-5.023-1.96-7.32l.269-.331c1.955.95 3.987 1.43 6.053 1.43 2.546 0 4.889-.657 6.975-1.951 2.086 1.294 4.43 1.95 6.976 1.95 2.065 0 4.097-.48 6.053-1.43l.268.331c-1.301 2.298-1.96 4.757-1.96 7.32 0 3.663 1.53 6.3 2.647 8.227.954 1.642 1.451 2.563 1.451 3.925 0 2.883-5.143 3.954-6.174 4.139m4.076-16.29c0-2.415.682-4.73 2.025-6.882a1 1 0 0 0-.074-1.162c-.395-.485-.809-.994-1.218-1.5a1 1 0 0 0-1.261-.246c-1.883 1.04-3.846 1.568-5.833 1.568-2.4 0-4.494-.644-6.406-1.97a.997.997 0 0 0-1.139 0c-1.912 1.326-4.007 1.97-6.406 1.97-1.988 0-3.951-.528-5.833-1.568a1 1 0 0 0-1.261.246c-.409.506-.823 1.015-1.219 1.5a1 1 0 0 0-.073 1.162c1.343 2.152 2.024 4.467 2.024 6.882 0 3.124-1.262 5.3-2.377 7.221-1.066 1.84-1.72 3.06-1.72 4.93 0 4.363 5.985 5.778 7.82 6.108 3.75.674 7.024 2.265 9.111 3.48a1.005 1.005 0 0 0 1.006 0c2.087-1.215 5.362-2.806 9.112-3.48 1.834-.33 7.82-1.745 7.82-6.108 0-1.87-.654-3.09-1.721-4.93-1.114-1.92-2.377-4.097-2.377-7.221m-3.269 20.785c-4.666.838-8.6 3.296-10.068 4.309-1.468-1.013-5.401-3.47-10.067-4.31-2.33-.418-9.933-2.28-9.933-8.633 0-2.655 1.004-4.387 2.068-6.22.998-1.72 2.03-3.498 2.03-5.931 0-3.667-2.027-6.302-3.157-7.487 1.154-1.405 3.695-4.506 5.088-6.29 2.122 1.935 4.571 2.988 6.996 2.988 2.701 0 4.942-1.065 6.975-3.336 2.033 2.27 4.275 3.336 6.976 3.336 2.425 0 4.874-1.053 6.996-2.988 1.393 1.784 3.934 4.885 5.088 6.29-1.13 1.185-3.157 3.82-3.157 7.487 0 2.433 1.032 4.212 2.03 5.932C50.996 34.438 52 36.17 52 38.825c0 6.354-7.602 8.215-9.932 8.634M51.662 31.6c-.944-1.627-1.759-3.033-1.759-4.927 0-4.002 3.121-6.603 3.15-6.627a1.002 1.002 0 0 0 .143-1.414c-.052-.062-5.147-6.24-6.311-7.835a.999.999 0 0 0-1.538-.094c-1.917 2.05-4.18 3.18-6.371 3.18-2.416 0-4.322-1.083-6.182-3.513-.379-.495-1.209-.495-1.588 0-1.859 2.43-3.765 3.513-6.181 3.513-2.192 0-4.454-1.13-6.371-3.18a1 1 0 0 0-1.539.094c-1.164 1.596-6.258 7.773-6.31 7.835-.17.206-.25.47-.224.737.028.266.159.51.367.677.032.026 3.15 2.595 3.15 6.627 0 1.894-.816 3.3-1.76 4.927C11.242 33.49 10 35.631 10 38.825c0 5.336 4.328 9.3 11.579 10.604 5.316.954 9.768 4.33 9.813 4.365a1 1 0 0 0 1.218-.001c.044-.034 4.478-3.406 9.811-4.364C49.672 48.125 54 44.16 54 38.825c0-3.194-1.242-5.335-2.338-7.224"></path></g></svg></svg></g></svg></g></g><g opacity="1"><g id="5a10a7dc-a096-403a-8a0a-210c1ea7cb61" transform="translate(0 0)"><svg x="256" y="185" overflow="visible"><g transform="scale(1.4131949617798671) matrix(0.707 0.409 -0.707 0.409 0 0)"><circle cx="0" cy="0" fill="transparent" r="31"></circle><svg width="48" height="48" x="-24" y="-24" style="fill: rgb(255, 255, 255);"><svg xmlns="http://www.w3.org/2000/svg" width="48" height="48" viewBox="0 0 48 48"><g fill="none" fill-rule="evenodd"><path fill="#242F3E" d="M28.639 9.286c0-2.915 2.413-5.286 5.38-5.286 2.966 0 5.378 2.371 5.378 5.286 0 2.915-2.412 5.286-5.378 5.286-2.967 0-5.38-2.371-5.38-5.286Zm11.524 7.048a11.71 11.71 0 0 0-2.035-1.001c1.97-1.31 3.269-3.531 3.269-6.047 0-4.017-3.31-7.286-7.378-7.286-4.069 0-7.38 3.269-7.38 7.286 0 2.51 1.293 4.728 3.256 6.039a11.896 11.896 0 0 0-3.546 2.1l1.303 1.518A9.766 9.766 0 0 1 34 16.572c1.802 0 3.569.505 5.109 1.461 2.74 1.702 4.538 4.692 4.844 7.967H34v2h11a1 1 0 0 0 1-1c0-4.343-2.236-8.43-5.837-10.666ZM8.639 9.286C8.639 6.371 11.052 4 14.019 4c2.966 0 5.378 2.371 5.378 5.286 0 2.915-2.412 5.286-5.378 5.286-2.967 0-5.38-2.371-5.38-5.286ZM14 26H4.046C4.53 20.717 8.81 16.572 14 16.572c1.802 0 3.569.505 5.109 1.461.432.269.849.575 1.24.91l1.303-1.517a11.71 11.71 0 0 0-3.524-2.093c1.97-1.31 3.269-3.531 3.269-6.047 0-4.017-3.31-7.286-7.378-7.286-4.069 0-7.38 3.269-7.38 7.286 0 2.515 1.298 4.737 3.268 6.046C5.302 17.071 2 21.638 2 27a1 1 0 0 0 1 1h11v-2Zm.046 18c.484-5.283 4.764-9.428 9.954-9.428 1.802 0 3.569.505 5.109 1.461 2.74 1.702 4.538 4.692 4.844 7.967H14.046Zm4.593-16.714c0-2.915 2.413-5.286 5.38-5.286 2.966 0 5.378 2.371 5.378 5.286 0 2.915-2.412 5.286-5.378 5.286-2.967 0-5.38-2.371-5.38-5.286Zm11.524 7.048a11.71 11.71 0 0 0-2.035-1.001c1.97-1.31 3.269-3.531 3.269-6.047 0-4.017-3.31-7.286-7.378-7.286-4.069 0-7.38 3.269-7.38 7.286 0 2.515 1.298 4.737 3.268 6.046C15.302 35.071 12 39.638 12 45a1 1 0 0 0 1 1h22a1 1 0 0 0 1-1c0-4.343-2.236-8.43-5.837-10.666Z"></path></g></svg></svg></g></svg></g></g><g opacity="1"><g id="a07dac64-30e7-4881-8b0e-1074c259422a" transform="translate(0 0)"><svg x="-128" y="259" overflow="visible"><g transform="scale(1.4131949617798671) matrix(0.707 0.409 -0.707 0.409 0 0)"><circle cx="0" cy="0" fill="transparent" r="31"></circle><svg width="48" height="48" x="-24" y="-24" style="fill: rgb(255, 255, 255);"><svg xmlns="http://www.w3.org/2000/svg" width="48" height="48" viewBox="0 0 48 48"><g fill="none" fill-rule="evenodd"><path fill="#BF0816" d="m29.07 20.547-5.826 6.118a.999.999 0 0 1-1.448 0l-2.914-3.058 1.448-1.38 2.189 2.299 5.104-5.358 1.448 1.379Zm-8.464 11.547v5.755l2.737-2.24a1 1 0 0 1 1.266 0l2.737 2.24v-5.755h2v7.865a.997.997 0 0 1-1 1 1 1 0 0 1-.632-.225l-3.738-3.058-3.737 3.058a1 1 0 0 1-1.633-.775v-7.865h2Zm3.37-2.748a6.874 6.874 0 0 1-6.866-6.866 6.874 6.874 0 0 1 6.866-6.866 6.874 6.874 0 0 1 6.866 6.866 6.874 6.874 0 0 1-6.866 6.866Zm8.866-6.866c0-4.89-3.977-8.866-8.866-8.866-4.888 0-8.866 3.977-8.866 8.866 0 4.888 3.978 8.866 8.866 8.866 4.889 0 8.866-3.978 8.866-8.866ZM4 9.244h39.9V6h-39.9v3.244Zm41.9.998V5a1 1 0 0 0-1-1h-41.9a1 1 0 0 0-1 1v38.454a1 1 0 0 0 1 1h28.84v-2H4.002v-31.21h39.903l.046 31.21h-3.368v2h4.37a1.001 1.001 0 0 0 1-1.001l-.05-33.211Z"></path></g></svg></svg></g></svg></g></g></g><g pointer-events="auto"></g></g></svg>